<?xml version="1.0" encoding="utf-8"?>
<!-- Generator: Adobe Illustrator 16.0.4, SVG Export Plug-In . SVG Version: 6.00 Build 0)  -->
<!DOCTYPE svg PUBLIC "-//W3C//DTD SVG 1.1//EN" "http://www.w3.org/Graphics/SVG/1.1/DTD/svg11.dtd">
<svg version="1.1" id="Layer_1" xmlns="http://www.w3.org/2000/svg" xmlns:xlink="http://www.w3.org/1999/xlink" x="0px" y="0px"
	 width="312.097px" height="312.097px" viewBox="0 0 312.097 312.097" enable-background="new 0 0 312.097 312.097"
	 xml:space="preserve">
<path fill="#CCE3FC" d="M156.048,312.097C70.003,312.097,0,242.094,0,156.048C0,70.003,70.003,0,156.048,0
	s156.049,70.003,156.049,156.048C312.097,242.094,242.093,312.097,156.048,312.097z"/>
<g>
	<defs>
		<circle id="SVGID_1_" cx="156.048" cy="156.048" r="145.976"/>
	</defs>
	<clipPath id="SVGID_2_">
		<use xlink:href="#SVGID_1_"  overflow="visible"/>
	</clipPath>
	<g clip-path="url(#SVGID_2_)">
		<circle fill="#2DE0AD" cx="156.048" cy="156.048" r="145.976"/>
	</g>
	<path clip-path="url(#SVGID_2_)" fill="#CCE3FC" d="M239.798,222.175c1.766-7.903,1.795-37.231-18.916-77.445
		c-1.823-3.55-3.445-7.646-5.162-11.975c-2.271-5.725-4.828-12.169-8.402-18.697c-2.305-7.829-13.24-41.644-33.596-54.097
		c-13.102-8.015-20.447-11.925-35.744-19.041c-1.38-0.637-2.7-1.302-3.951-1.919c-4.422-2.202-8.248-4.107-12.44-4.369l-0.882-0.027
		c-11.53-0.052-17.568,10.152-19.547,13.491c-0.422,0.686-2.165,3.017-3.438,4.725c-4.802,6.419-7.808,10.562-9.121,13.939
		c-1.518,3.91-0.981,7.431,2.735,13.92c-1.279,1.954-2.476,4.168-3.192,6.477c-0.567,1.853-1.115,5.563,1.487,9.737
		c1.91,3.065,9.882,11.081,16.021,12.06l0.773,0.108l0.491,0.03c2.728,0.169,5.408-0.437,8.502-1.131
		c2.055-0.47,5.157-1.164,6.621-1.073c0.008,0.002,0.008,0.002,0.008,0.002c1.141,0.104,2.236,0.549,4.075,1.319
		c2.494,1.047,5.586,2.346,9.575,2.594c1.358,0.085,2.73,0.041,4.094-0.145c0.514-0.065,1.746-0.153,4.273,0.003
		c1.754,0.109,3.518,0.292,5.057,0.445c0.049,0.01,0.105,0.013,0.154,0.016c2.559,6.051,6.478,18.143,7.346,28.97
		c-1.623,4.326-4.626,13.48-4.823,22.567c-0.072,3.183-0.256,6.807-0.519,10.359c-6.3-6.373-16.027-12.391-30.653-13.438
		l-0.718-0.054c-13.866-0.861-22.225,2.623-27.237,5.878c-0.169-0.164-0.333-0.323-0.491-0.481
		c-7.229-7.083-18.154-17.795-33.312-20.276c-2.445-0.407-4.878-0.681-7.226-0.828c-18.448-1.145-29.914,5.812-36.766,9.964
		c-0.723,0.44-1.594,0.967-2.342,1.396c-0.729-0.383-1.453-0.763-1.888-1.011l-4.941-3.384l-5.261,84.687l72.865,48.336l0.872-3.213
		c0.71-2.604,2.243-8.259,3.637-12.208c3.968,1.263,9.567,3.679,14.334,5.728c3.732,1.604,7.629,3.282,11.553,4.829
		c5.847,2.306,15.17,4.003,25.581,4.651c9.034,0.561,22.87,0.598,37.441-2.386c10.564-2.156,18.295-2.184,25.121-2.202
		c10.646-0.039,20.73-0.066,31.617-9.39c3.971-1.861,8.561-4.119,10.521-5.481c8.074-5.611,14.038-17.378,8.037-29.954
		C239.454,228.796,239.64,223.15,239.798,222.175z"/>
	<path clip-path="url(#SVGID_2_)" fill="#0E83C4" d="M229.572,219.9c0.954-4.287,2.191-31.155-18.004-70.378
		c-4.749-9.234-7.735-20.337-13.991-31.429c0,0-10.447-37.648-29.326-49.197c-12.779-7.812-19.9-11.594-34.671-18.465
		c-5.462-2.522-10.066-5.343-12.923-5.348c-5.051-0.027-8.247,4.572-10.491,8.361c-1.704,2.89-10.393,13.479-11.802,17.107
		c-0.533,1.37,5.828,10.901,5.828,10.901s-4.763,4.705-6.03,8.761c-0.494,1.642,7.328,8.107,9.1,8.393
		c2.722,0.42,10.475-2.665,15.772-2.154c6.264,0.602,9.702,4.563,15.38,3.815c5.683-0.743,15.228,1.137,16.889,0.688
		c1.659-0.453,11.122,22.041,11.923,40.824c0,0-4.732,11.018-4.952,21.102c-0.191,8.748-1.683,29.611-3.949,31.595
		c-2.263,1.977-4.232,0.974-6.687-1.927c0,0-6.31-20.691-31.762-22.517c-21.892-1.574-25.066,9.155-27.647,8.42
		c-5.15-1.46-17.268-20.547-35.065-23.472c-30.136-4.94-39.472,14.453-46.866,10.819c-0.645-0.32-4.706-2.394-5.351-2.837
		l-4.525,72.827l63.62,42.187c2.137-7.887,5.504-20.333,8.627-20.828c6.559-1.036,20.55,6.387,34.88,12.048
		c9.552,3.761,34.638,6.335,57.076,1.749c28.818-5.902,39.004,2.711,53.036-10.177c0,0,8.434-3.915,10.346-5.241
		c4.405-3.062,8.005-9.616,4.558-16.833C228.694,230.58,229.047,222.262,229.572,219.9z"/>
	<path clip-path="url(#SVGID_2_)" fill="#2BABE2" d="M128.096,52.386c0,0-8.7-6.487-11.707-3.178
		c-3.001,3.314-14.582,20.705-14.582,20.705l4.975,10.194l9.687-1.148L128.096,52.386z"/>
	<path clip-path="url(#SVGID_2_)" fill="#2BABE2" d="M105.537,83.179c0,0-4.531,5.317-4.638,7.059
		c-0.109,1.749,16.34,1.721,17.206-1.031C118.981,86.466,108.678,83.372,105.537,83.179z"/>
	<path clip-path="url(#SVGID_2_)" fill="#2BABE2" d="M162.145,101.399c-2.497,0.896,8.852,30.407,9.324,41.526
		c0,0-5.542,10.791-5.758,20.875c-0.191,8.739-3.988,31.889-1.781,32.894c8.305,3.779,11.696-22.025,11.552-28.327
		c-0.37-16.467,6.981-22.317,6.653-28.283C181.818,134.119,164.657,100.498,162.145,101.399z"/>
	<path clip-path="url(#SVGID_2_)" fill="#0472B6" d="M4.758,233.632l2.024-32.633c15,8.361,47.514,25.622,76,17.599
		c11.27-3.179,8.854,2.697,22.928,8.25c16.521,6.52,34.435,15.139,52.125,5.863c4.479-2.35,11.612-6.484,16.143-2.363
		c20.974,19.013,41.639,12.584,55.61,12.551c0.856,4.4-1.91,7.756-3.976,9.194c-0.994,0.685-5.818,3.068-9.709,4.869l-0.602,0.273
		l-0.478,0.445c-7.193,6.604-12.814,6.627-23.026,6.656c-7.138,0.025-16.014,0.047-28.011,2.501
		c-10.141,2.076-22.074,2.828-33.593,2.112c-8.808-0.55-16.705-1.915-21.11-3.648c-3.776-1.498-7.531-3.109-11.135-4.662
		c-9.21-3.965-17.165-7.389-22.942-7.75c-1.07-0.065-2.082-0.03-2.994,0.121c-4.337,0.688-6.788,5.547-10.462,18.295L4.758,233.632z
		"/>
	<path clip-path="url(#SVGID_2_)" fill="#2BABE2" d="M156.876,208.855c-10.217,1.111-36.752,2.735-50.479-4.302
		c-6.853-3.52-10.127-10.215-15.421-10.988c-6.205-0.912-12.059,9.546-46.896,0.115c-18.643-5.048-32.439-16.635-35.42-18.394
		l0.268-4.323c0.956,0.432,10.947-1.654,14.772-3.977c6.078-3.685,14.983-8.173,28.734-6.263
		c24.714,3.429,33.282,24.296,39.083,25.583c6.563,1.448,10.813-13.502,31.035-10.906c12.693,1.623,23.488,10.733,25.996,21.034
		C150.608,204.898,157.325,208.117,156.876,208.855z"/>
	<polygon clip-path="url(#SVGID_2_)" fill="#20ABDA" points="131.358,84.348 134.352,88.993 130.52,89.414 126.939,87.747 	"/>
	<path clip-path="url(#SVGID_2_)" fill="#0472B6" d="M180.908,210.576c0.749-3.626,14.145,7.967,25.417,13.481
		c8.706,4.266,17.968-0.515,16.634,2.609c-1.187,2.771-7.957,9.829-18.691,5.137C192.096,226.487,180.156,214.205,180.908,210.576z"
		/>
	<polygon clip-path="url(#SVGID_2_)" fill="#FFFFFF" points="215.605,176.85 214.534,170.647 183.622,179.255 186.045,185.075 
		201.733,180.71 200.997,181.293 188.349,191.24 190.462,196.997 190.483,196.983 190.483,196.987 211.727,191.153 213.438,199.146 
		207.003,203.062 199.821,203.234 198.05,198.468 191.814,200.198 195.257,209.396 208.899,209.614 220.423,202.46 216.844,183.299 
		202.611,187.265 202.649,187.234 	"/>
	<path clip-path="url(#SVGID_2_)" fill="#0E83C4" d="M120.739,226.071c-7.892-0.298-14.568-5.012-17.106-11.778h-0.004
		c-1.537-0.079-2.727-0.678-3.508-1.648c-0.751-0.935-1.077-2.155-0.886-3.347c0.07-0.392,0.162-0.696,0.274-0.967l2.517-7.297
		c0.69-1.819,2.426-2.984,4.35-2.984l0.302,0.008c1.226,0.08,2.365,0.656,3.12,1.585l5.121,5.302c0.178,0.153,0.432,0.47,0.645,0.84
		c0.558,0.836,0.763,2.008,0.489,3.158c-0.269,1.118-0.976,2.104-1.962,2.746c0.672,1.044,1.593,1.935,2.7,2.615l2.082-18.731
		c-1.954-1.641-3-4.081-2.689-6.545c0.462-3.852,3.998-6.767,8.224-6.767c0.268,0,0.537,0.011,0.812,0.035
		c4.474,0.405,7.822,4.097,7.471,8.233c-0.221,2.481-1.691,4.643-3.896,5.896l-1.768,17.991c0.997-0.552,1.885-1.263,2.617-2.096
		c-0.708-0.725-1.146-1.673-1.228-2.673c-0.096-1.175,0.304-2.357,1.096-3.246c0.238-0.26,0.477-0.468,0.725-0.647l5.897-4.551
		c0.667-0.59,1.691-0.975,2.749-0.975l0.301,0.011c2.021,0.145,3.656,1.626,3.971,3.599l0.866,7.359
		c0.023,0.073,0.052,0.401,0.043,0.752c-0.12,2.404-2.058,4.229-4.412,4.229c-0.003,0-0.299-0.014-0.436-0.024
		c-3.498,6.028-10.305,9.933-17.686,9.933C121.267,226.087,121.005,226.082,120.739,226.071z"/>
	<path clip-path="url(#SVGID_2_)" fill="#FFFFFF" d="M124.254,191.834c-1.239-0.103-2.156-1.086-2.033-2.182
		c0.128-1.102,1.234-1.894,2.45-1.79c1.247,0.111,2.146,1.065,2.041,2.165C126.606,191.12,125.514,191.935,124.254,191.834z
		 M141.239,211.522l-0.85-7.242c-0.106-0.666-0.683-1.199-1.406-1.251c-0.444-0.027-0.839,0.125-1.143,0.391l-5.955,4.593
		c-0.102,0.074-0.199,0.156-0.287,0.253c-0.595,0.666-0.517,1.66,0.176,2.219c0.137,0.108,0.286,0.183,0.434,0.25l1.405,0.536
		c-1.67,3.711-5.381,6.49-9.792,7.122l2.348-23.878c2.053-0.599,3.556-2.23,3.733-4.223c0.224-2.629-1.968-4.94-4.936-5.209
		c-2.977-0.268-5.687,1.632-6.007,4.293c-0.254,2.018,0.979,3.892,2.884,4.804l-2.673,24.048c-4.458-0.983-7.838-4.202-8.81-8.238
		l1.601-0.383c0.178-0.049,0.347-0.106,0.509-0.205c0.85-0.486,1.152-1.486,0.669-2.219c-0.07-0.123-0.145-0.213-0.238-0.298
		l-5.271-5.474c-0.255-0.312-0.667-0.529-1.135-0.561c-0.806-0.052-1.568,0.421-1.825,1.097l-2.555,7.408
		c-0.057,0.114-0.094,0.251-0.117,0.38c-0.146,0.912,0.541,1.702,1.544,1.76c0.19,0.005,0.368-0.006,0.546-0.053l1.527-0.357
		c1.339,6.709,7.391,11.894,15.227,12.19c7.68,0.284,14.377-4.233,16.912-10.485l1.311,0.492c0.152,0.06,0.311,0.09,0.488,0.096
		c0.908,0.049,1.667-0.617,1.711-1.491C141.267,211.763,141.262,211.632,141.239,211.522z"/>
</g>
</svg>
