<?xml version="1.0" encoding="utf-8"?>
<!-- Generator: Adobe Illustrator 16.0.4, SVG Export Plug-In . SVG Version: 6.00 Build 0)  -->
<!DOCTYPE svg PUBLIC "-//W3C//DTD SVG 1.1//EN" "http://www.w3.org/Graphics/SVG/1.1/DTD/svg11.dtd">
<svg version="1.1" id="Layer_1" xmlns="http://www.w3.org/2000/svg" xmlns:xlink="http://www.w3.org/1999/xlink" x="0px" y="0px"
	 width="411.847px" height="411.847px" viewBox="0 0 411.847 411.847" enable-background="new 0 0 411.847 411.847"
	 xml:space="preserve">
<path fill="#CCE3FC" d="M205.923,411.847C92.378,411.847,0,319.468,0,205.923C0,92.379,92.378,0,205.923,0
	c113.546,0,205.924,92.379,205.924,205.923C411.847,319.468,319.469,411.847,205.923,411.847z"/>
<g>
	<defs>
		<circle id="SVGID_1_" cx="205.923" cy="205.923" r="197.957"/>
	</defs>
	<clipPath id="SVGID_2_">
		<use xlink:href="#SVGID_1_"  overflow="visible"/>
	</clipPath>
	<circle clip-path="url(#SVGID_2_)" fill="#FFFFFF" cx="205.923" cy="205.923" r="197.957"/>
	<path clip-path="url(#SVGID_2_)" fill="#EE8112" d="M357.386,354.61c-10.709-24.734-18.509-41.86-21.484-50.201l22.692-52.078
		l-25.402-2.645l-12.948,33.154c0.008,0.004,0.034,0.022,0.034,0.022c-0.016-0.013-0.03,0-0.048,0l-0.079,0.207l-0.069-0.22
		c-30.199-2.288-43.948,22.269-43.948,22.269c17.122-36.106,41.308-23.851,43.907-22.401l-3.274-9.897l-9.635-43.146l-22.518,1.941
		l2.348,38.859l-20.255-41.117l-21.168,6.176l17.806,47.74l-30.092-31.266l-12.511,12.098l26.392,33.249l-31.052-14.065
		l-9.961,13.438l30.644,21.026l28.4,39.489l26.451-6.965l4.893-11.049l14.781-2.054l13.963-19.141l-9.408,22.794l-14.271,3.383
		l-5.404,9.729l-30.931,3.404l27.179,43.31L357.386,354.61z"/>
	<path clip-path="url(#SVGID_2_)" fill="#2BABE2" d="M111.026,397.81l27.178-43.31l-30.933-3.407l-5.402-9.727l-14.273-3.383
		l-9.407-22.796l13.963,19.142l14.784,2.053l4.89,11.05l26.454,6.964l28.398-39.487l30.645-21.027l-9.962-13.438l-31.051,14.067
		l26.391-33.252l-12.512-12.098l-30.092,31.267l17.807-47.74l-21.167-6.173l-20.255,41.114l2.348-38.86l-22.521-1.94l-9.633,43.146
		l-3.271,9.896c2.598-1.447,26.786-13.706,43.904,22.403c0,0-13.747-24.56-43.945-22.268l-0.072,0.218l-0.076-0.208
		c-0.019,0-0.035-0.01-0.048,0c0,0,0.025-0.018,0.032-0.021l-12.949-33.156l-25.402,2.646l22.695,52.077
		c-2.977,8.343-10.777,25.466-21.486,50.202L111.026,397.81z"/>
	<path clip-path="url(#SVGID_2_)" fill="#F05819" d="M292.417,16.854l-27.179,43.308l30.931,3.407l5.404,9.729l14.271,3.383
		l9.408,22.795l-13.963-19.141l-14.781-2.054l-4.893-11.051l-26.451-6.964l-28.4,39.489l-30.644,21.027l9.961,13.438l31.052-14.067
		l-26.392,33.252l12.511,12.097l30.092-31.268l-17.806,47.742l21.168,6.176l20.255-41.118l-2.348,38.858l22.518,1.943l9.635-43.146
		l3.274-9.899c-2.6,1.449-26.785,13.708-43.907-22.401c0,0,13.749,24.559,43.948,22.269l0.069-0.218l0.079,0.208
		c0.018,0,0.032,0.01,0.048,0c0,0-0.026,0.018-0.034,0.021l12.948,33.155l25.402-2.646l-22.692-52.077
		c2.976-8.343,10.775-25.466,21.484-50.202L292.417,16.854z"/>
	<path clip-path="url(#SVGID_2_)" fill="#FAD400" d="M46.056,65.744c10.709,24.736,18.51,41.86,21.486,50.203l-22.695,52.077
		l25.402,2.645l12.949-33.155c-0.007-0.002-0.032-0.022-0.032-0.022c0.013,0.012,0.029,0,0.048,0l0.076-0.208l0.072,0.22
		c30.198,2.291,43.945-22.267,43.945-22.267c-17.118,36.107-41.307,23.85-43.904,22.399l3.271,9.898l9.633,43.147l22.521-1.941
		l-2.348-38.857l20.255,41.113l21.167-6.173l-17.807-47.742l30.092,31.266l12.512-12.095l-26.391-33.253l31.051,14.067l9.962-13.437
		l-30.645-21.027l-28.398-39.488l-26.454,6.962l-4.89,11.052l-14.784,2.051L78.188,102.32l9.407-22.793l14.273-3.384l5.402-9.727
		l30.933-3.407L111.026,19.7L46.056,65.744z"/>
	<g clip-path="url(#SVGID_2_)">
		<polygon fill="#F05A1C" points="245.538,235.534 260.978,276.926 268.929,276.926 268.929,233.872 266.706,229.358 		"/>
		<polygon fill="#F05A1C" points="233.252,252.009 220.741,264.106 230.919,276.926 257.234,276.926 		"/>
		<polygon fill="#058DD1" points="157.903,232.688 142.991,228.336 142.991,272.667 		"/>
		<polygon fill="#058DD1" points="170.188,249.161 143.466,276.926 170.267,276.926 182.7,261.259 		"/>
		<polygon fill="#2DE0AD" points="156.65,123.714 156.65,263.267 255.271,263.267 255.271,163.188 215.803,123.714 		"/>
		<polygon fill="#13A87A" points="255.271,163.206 215.759,163.206 215.759,123.714 210.376,168.408 		"/>
		<g>
			<polygon fill="#37F4BA" points="215.803,123.714 215.759,123.714 215.759,163.206 255.271,163.206 255.271,163.188 			"/>
		</g>
		<g>
			<path fill="#FFFFFF" d="M192.879,217.187c-2.417,1.474-6.508,2.248-10.231,2.248c-10.193,0-14.372-5.934-14.372-15.43
				c0-8.72,5.037-15.231,15.231-15.231c3.399,0,7.04,0.86,9.29,2.333v8.02l-4.498-0.362l-0.66-4.017
				c-0.081-0.409-0.243-0.616-0.652-0.735c-0.905-0.282-2.294-0.489-3.643-0.489c-5.202,0-8.517,3.522-8.517,10.482
				c0,7.244,3.151,10.766,8.231,10.766c1.348,0,3.022-0.206,4.091-0.534c0.489-0.118,0.615-0.246,0.739-0.857l0.609-3.81h4.381
				V217.187z"/>
			<path fill="#FFFFFF" d="M211.694,197.983l-0.497-3.315c-0.079-0.488-0.204-0.656-0.489-0.78
				c-0.658-0.203-1.636-0.449-2.991-0.449c-3.072,0-4.589,1.393-4.589,3.479c0,2.701,2.787,3.438,5.896,4.381
				c3.892,1.19,8.23,2.662,8.23,8.8c0,6.718-5.239,9.336-11.504,9.336c-3.681,0-7.817-0.938-9.377-1.674v-7.988h4.586l0.82,3.892
				c0.084,0.49,0.167,0.617,0.696,0.733c0.493,0.127,1.882,0.453,3.438,0.453c3.317,0,5.162-1.311,5.162-3.805
				c0-2.62-2.337-3.439-5.074-4.214c-4.056-1.152-9.05-2.258-9.05-8.849c0-6.304,4.747-9.21,10.968-9.21
				c3.521,0,6.551,0.86,8.397,1.632v7.988L211.694,197.983z"/>
			<path fill="#FFFFFF" d="M235.985,197.983l-0.498-3.315c-0.076-0.488-0.202-0.656-0.49-0.78c-0.651-0.203-1.632-0.449-2.988-0.449
				c-3.069,0-4.584,1.393-4.584,3.479c0,2.701,2.785,3.438,5.896,4.381c3.891,1.19,8.231,2.662,8.231,8.8
				c0,6.718-5.24,9.336-11.508,9.336c-3.679,0-7.815-0.938-9.374-1.674v-7.988h4.581l0.824,3.892
				c0.083,0.49,0.163,0.617,0.693,0.733c0.496,0.127,1.886,0.453,3.441,0.453c3.314,0,5.159-1.311,5.159-3.805
				c0-2.62-2.334-3.439-5.077-4.214c-4.054-1.152-9.049-2.258-9.049-8.849c0-6.304,4.752-9.21,10.973-9.21
				c3.521,0,6.547,0.86,8.395,1.632v7.988L235.985,197.983z"/>
		</g>
	</g>
</g>
</svg>
